<?xml version="1.0" standalone="no"?>
<!DOCTYPE svg PUBLIC "-//W3C//DTD SVG 20010904//EN"
 "http://www.w3.org/TR/2001/REC-SVG-20010904/DTD/svg10.dtd">
<svg version="1.0" xmlns="http://www.w3.org/2000/svg"
 width="512.000000pt" height="484.000000pt" viewBox="0 0 512.000000 484.000000"
 preserveAspectRatio="xMidYMid meet">

<g transform="translate(0.000000,484.000000) scale(0.100000,-0.100000)"
fill="#000000" stroke="none">
<path d="M2487 4606 c-45 -16 -32 -7 -382 -294 l-280 -229 -5 141 c-5 150 -13
175 -57 195 -34 15 -657 15 -686 0 -58 -30 -57 -12 -57 -524 l0 -470 -500
-409 c-276 -225 -505 -417 -510 -427 -17 -31 -12 -94 10 -122 22 -28 74 -43
112 -34 13 4 138 100 278 215 l255 209 5 -1281 c4 -1041 7 -1285 18 -1304 31
-55 -63 -52 1872 -52 1935 0 1841 -3 1872 52 11 19 14 263 18 1304 l5 1281
255 -209 c140 -115 265 -211 278 -215 38 -9 90 6 112 34 31 39 27 105 -7 142
-37 39 -2389 1959 -2430 1983 -42 25 -128 32 -176 14z m131 -258 c24 -13 398
-313 832 -668 l789 -645 1 -1302 0 -1303 -1680 0 -1680 0 0 1303 1 1302 789
645 c434 355 808 655 832 668 23 12 49 22 58 22 9 0 35 -10 58 -22z m-1008
-285 l-1 -158 -135 -110 c-75 -60 -160 -129 -190 -153 l-54 -44 0 311 0 311
190 0 190 0 0 -157z"/>
<path d="M3293 3514 c-33 -16 -36 -23 -129 -250 -27 -67 -32 -73 -83 -100 -66
-34 -157 -121 -194 -185 -55 -93 -69 -153 -76 -324 -8 -177 -14 -199 -75 -253
-45 -39 -91 -52 -191 -52 -171 0 -324 -47 -465 -141 -173 -116 -297 -284 -356
-484 -15 -51 -18 -119 -23 -455 l-6 -395 -201 -3 c-193 -2 -202 -2 -245 21
-56 30 -89 84 -89 150 0 107 82 177 207 177 48 0 78 22 89 65 8 33 -11 79 -41
95 -35 19 -169 8 -227 -18 -70 -31 -141 -102 -174 -175 -25 -53 -29 -74 -29
-147 0 -72 4 -93 27 -140 32 -65 97 -134 153 -163 22 -11 73 -28 113 -38 68
-17 130 -19 835 -19 716 0 766 1 830 19 39 11 85 32 105 48 l36 29 55 -33 c30
-18 70 -35 90 -38 20 -4 46 -10 59 -16 53 -21 177 -2 263 42 79 40 131 128
132 224 2 100 -44 181 -130 232 l-43 25 0 141 c0 138 0 141 29 186 54 83 122
239 148 338 23 85 27 126 32 308 l6 210 65 47 c143 105 137 96 167 249 32 165
33 164 -91 239 -64 40 -93 65 -121 106 -61 89 -162 154 -271 176 l-54 11 0
114 c0 126 -11 161 -55 181 -32 15 -33 15 -72 -4z m147 -475 c72 -15 139 -64
178 -129 25 -42 47 -64 93 -92 84 -50 82 -47 69 -114 l-12 -59 -89 -64 c-138
-100 -126 -71 -132 -331 -8 -319 -43 -450 -171 -635 l-41 -60 0 -228 0 -229
26 -22 c15 -13 45 -26 67 -30 75 -12 106 -87 58 -143 -23 -26 -29 -28 -118
-31 -108 -3 -148 11 -185 67 -23 34 -23 38 -23 353 0 351 -2 364 -60 388 -24
10 -36 10 -60 0 -54 -23 -60 -48 -60 -266 l0 -196 -22 6 c-13 3 -57 6 -99 6
l-77 0 -4 133 c-4 102 -10 146 -27 196 -48 139 -145 248 -277 312 -104 51
-151 52 -189 7 -21 -25 -25 -38 -21 -62 9 -42 31 -63 86 -81 63 -21 149 -83
183 -132 56 -81 61 -105 67 -305 l5 -188 28 -27 c27 -27 31 -28 168 -33 133
-5 142 -6 160 -29 11 -14 19 -39 19 -61 0 -30 -6 -44 -31 -64 l-31 -26 -524 0
-524 0 0 333 c0 339 6 417 41 519 52 155 184 305 333 378 107 53 178 69 334
78 118 7 136 11 195 40 82 41 157 120 188 200 18 47 23 86 28 222 8 193 20
230 106 316 84 85 203 113 345 83z"/>
</g>
</svg>
