<?xml version="1.0" standalone="no"?>
<!DOCTYPE svg PUBLIC "-//W3C//DTD SVG 20010904//EN"
 "http://www.w3.org/TR/2001/REC-SVG-20010904/DTD/svg10.dtd">
<svg version="1.0" xmlns="http://www.w3.org/2000/svg"
 width="447.000000pt" height="66.000000pt" viewBox="0 0 447.000000 66.000000"
 preserveAspectRatio="xMidYMid meet">

<g transform="translate(0.000000,66.000000) scale(0.100000,-0.100000)"
fill="#000000" stroke="none">
<path d="M2340 597 c0 -41 -5 -58 -20 -72 -24 -21 -26 -43 -5 -51 21 -9 19
-48 -5 -69 -25 -23 -25 -37 0 -60 16 -14 20 -33 22 -109 l3 -91 53 -3 c42 -2
52 0 52 12 0 12 -10 16 -35 16 l-35 0 0 89 c0 79 -3 92 -20 104 l-20 14 20 18
c21 19 28 79 10 90 -15 9 9 37 27 31 17 -7 17 15 -2 40 -8 10 -15 36 -15 57 0
26 -4 37 -15 37 -11 0 -15 -13 -15 -53z"/>
<path d="M3061 634 c-26 -19 -51 -71 -51 -108 0 -19 -6 -25 -27 -28 -36 -4
-41 -26 -6 -30 34 -4 43 -40 18 -68 -17 -19 -16 -30 7 -62 10 -13 9 -22 -2
-43 -11 -21 -12 -30 -2 -45 7 -11 12 -30 12 -42 0 -38 12 -68 26 -68 10 0 13
24 12 107 0 60 -4 113 -10 120 -6 7 -5 14 2 18 5 3 10 21 10 40 0 36 12 45 61
45 19 0 29 5 29 15 0 11 -12 15 -46 15 l-47 0 6 42 c7 56 37 81 83 72 26 -5
34 -3 34 9 0 30 -71 37 -109 11z"/>
<path d="M3550 597 c0 -41 -5 -58 -20 -72 -24 -21 -26 -43 -5 -51 21 -9 19
-48 -5 -69 -25 -23 -25 -37 0 -60 16 -14 20 -33 22 -109 l3 -91 53 -3 c42 -2
52 0 52 12 0 12 -10 16 -35 16 l-35 0 0 89 c0 79 -3 92 -20 104 l-20 14 20 18
c21 19 28 79 10 90 -15 9 9 37 27 31 17 -7 17 15 -2 40 -8 10 -15 36 -15 57 0
26 -4 37 -15 37 -11 0 -15 -13 -15 -53z"/>
<path d="M4090 573 c0 -96 -11 -119 -34 -74 -9 17 -20 31 -25 31 -4 0 -20 -14
-35 -31 l-28 -31 -28 27 c-36 35 -60 28 -60 -17 0 -18 -12 -51 -25 -73 -48
-77 -28 -173 47 -228 32 -24 115 -34 157 -19 19 7 33 7 36 1 18 -28 25 2 25
104 0 75 4 117 12 125 9 9 9 12 0 12 -8 0 -12 37 -14 122 -2 86 -7 123 -15
126 -10 3 -13 -17 -13 -75z m-24 -143 c8 0 14 -10 14 -25 0 -14 -5 -25 -11
-25 -8 0 -8 -5 1 -15 10 -12 9 -15 -6 -15 -18 -1 -18 -1 -1 -14 13 -10 17 -28
17 -69 0 -65 -12 -77 -82 -77 -54 0 -100 27 -121 73 -23 48 -21 78 8 118 14
19 28 41 31 49 4 11 16 14 43 12 26 -3 41 1 51 13 13 16 15 16 28 -4 8 -11 21
-21 28 -21z"/>
<path d="M3950 385 c0 -8 5 -15 10 -15 6 0 10 7 10 15 0 8 -4 15 -10 15 -5 0
-10 -7 -10 -15z"/>
<path d="M4010 390 c0 -5 7 -10 15 -10 8 0 15 5 15 10 0 6 -7 10 -15 10 -8 0
-15 -4 -15 -10z"/>
<path d="M3890 371 c0 -10 30 -24 37 -17 3 2 -5 9 -16 16 -12 6 -21 7 -21 1z"/>
<path d="M3900 325 c-14 -16 -10 -18 14 -9 9 3 16 10 16 15 0 14 -16 11 -30
-6z"/>
<path d="M815 610 c-13 -21 9 -30 76 -30 l69 0 0 -44 c0 -25 5 -57 12 -73 6
-15 10 -56 9 -90 -2 -51 0 -64 14 -69 14 -6 13 -8 -5 -21 -16 -12 -20 -25 -20
-74 0 -46 3 -59 15 -59 11 0 15 12 15 51 0 47 2 51 30 60 37 13 39 42 5 65
-30 20 -32 54 -5 79 27 24 25 43 -5 57 -22 10 -25 17 -25 64 l0 53 58 3 c43 2
57 7 57 18 0 13 -24 15 -147 18 -92 2 -149 -1 -153 -8z"/>
<path d="M60 571 c0 -32 -5 -44 -25 -57 -30 -20 -32 -39 -5 -56 28 -18 28 -83
0 -98 -25 -14 -25 -32 0 -55 14 -13 20 -33 22 -79 l3 -61 118 -3 c98 -2 117 0
117 12 0 12 -19 16 -102 18 l-103 3 -3 60 c-2 32 -7 64 -13 71 -6 7 -4 16 6
24 18 15 21 100 3 118 -8 8 -8 15 1 26 15 18 10 108 -6 114 -9 2 -13 -9 -13
-37z"/>
<path d="M3370 596 c0 -9 5 -16 10 -16 6 0 10 4 10 9 0 6 -4 13 -10 16 -5 3
-10 -1 -10 -9z"/>
<path d="M3410 595 c-6 -8 -9 -19 -5 -25 8 -13 35 -13 35 0 0 6 -4 10 -10 10
-5 0 -7 7 -4 15 8 19 0 19 -16 0z"/>
<path d="M4340 596 c0 -9 5 -16 10 -16 6 0 10 4 10 9 0 6 -4 13 -10 16 -5 3
-10 -1 -10 -9z"/>
<path d="M4380 595 c-6 -8 -9 -19 -5 -25 8 -13 35 -13 35 0 0 6 -4 10 -10 10
-5 0 -7 7 -4 15 8 19 0 19 -16 0z"/>
<path d="M3695 590 c-8 -14 3 -30 21 -30 8 0 14 9 14 20 0 21 -24 28 -35 10z"/>
<path d="M3306 573 c-11 -11 -6 -23 9 -23 8 0 15 4 15 9 0 13 -16 22 -24 14z"/>
<path d="M4276 573 c-11 -11 -6 -23 9 -23 8 0 15 4 15 9 0 13 -16 22 -24 14z"/>
<path d="M2417 536 c-4 -10 -5 -21 -2 -24 9 -9 17 6 13 25 -3 17 -4 17 -11 -1z"/>
<path d="M3627 536 c-4 -10 -5 -21 -2 -24 9 -9 17 6 13 25 -3 17 -4 17 -11 -1z"/>
<path d="M3280 534 c0 -3 7 -12 16 -21 12 -12 18 -13 27 -4 9 9 8 14 -3 21
-17 11 -40 13 -40 4z"/>
<path d="M4250 534 c0 -3 7 -12 16 -21 12 -12 18 -13 27 -4 9 9 8 14 -3 21
-17 11 -40 13 -40 4z"/>
<path d="M140 508 c0 -7 5 -20 10 -28 8 -12 10 -11 10 7 0 12 -4 25 -10 28 -5
3 -10 0 -10 -7z"/>
<path d="M2118 500 c-15 -24 -40 -26 -73 -4 -28 18 -45 12 -45 -17 0 -10 -4
-19 -10 -19 -5 0 -10 11 -10 25 0 16 -6 25 -15 25 -13 0 -15 -24 -15 -158 0
-221 9 -342 26 -342 11 0 14 18 14 73 l0 72 68 0 c80 0 141 29 174 84 38 60
24 156 -30 204 -11 10 -26 32 -32 48 -14 34 -35 37 -52 9z m57 -116 c-22 -17
-18 -26 5 -14 17 9 22 7 31 -14 34 -74 -46 -166 -144 -166 -69 0 -77 7 -77 66
0 45 3 54 18 54 9 0 24 5 32 11 11 8 7 9 -18 6 -39 -4 -47 7 -38 56 8 41 52
68 100 60 19 -3 36 -1 40 6 4 6 18 -2 36 -22 25 -27 27 -34 15 -43z"/>
<path d="M2110 395 c0 -8 5 -15 10 -15 6 0 10 7 10 15 0 8 -4 15 -10 15 -5 0
-10 -7 -10 -15z"/>
<path d="M2047 394 c-8 -8 1 -24 14 -24 5 0 9 7 9 15 0 15 -12 20 -23 9z"/>
<path d="M2015 360 c3 -5 13 -10 21 -10 8 0 12 5 9 10 -3 6 -13 10 -21 10 -8
0 -12 -4 -9 -10z"/>
<path d="M2170 340 c19 -13 30 -13 30 0 0 6 -10 10 -22 10 -19 0 -20 -2 -8
-10z"/>
<path d="M180 494 c0 -8 5 -12 10 -9 6 3 10 10 10 16 0 5 -4 9 -10 9 -5 0 -10
-7 -10 -16z"/>
<path d="M1465 488 c-11 -44 -1 -331 12 -335 8 -3 12 32 15 122 l3 127 32 29
c43 38 78 46 102 25 25 -23 33 -66 15 -83 -18 -18 -18 -28 1 -47 17 -17 20
-46 5 -46 -21 0 -21 -30 -1 -56 12 -15 21 -37 21 -50 0 -15 6 -24 15 -24 17 0
22 75 5 85 -7 4 -7 12 0 25 14 27 12 56 -5 70 -11 9 -13 16 -5 24 5 5 10 19
10 29 0 28 63 87 94 87 61 0 90 -75 85 -220 -3 -79 -2 -95 11 -95 12 0 16 21
18 115 3 123 -10 180 -48 215 -28 25 -94 23 -130 -4 -36 -26 -41 -26 -63 -1
-22 26 -81 26 -124 0 l-32 -19 -3 21 c-4 30 -26 34 -33 6z"/>
<path d="M521 484 c-17 -12 -34 -15 -69 -10 -92 14 -86 16 -94 -39 -21 -141
-21 -177 -3 -211 24 -44 92 -78 144 -71 48 6 91 34 91 58 0 24 -1 24 -50 -2
-29 -16 -51 -20 -77 -16 -36 6 -83 41 -83 62 0 6 37 15 91 21 60 7 96 16 107
28 18 17 27 106 11 106 -5 0 -9 20 -9 45 0 50 -16 58 -59 29z m21 -85 c0 -24
5 -47 12 -51 25 -16 -16 -31 -96 -35 -80 -4 -82 -3 -55 12 32 19 34 28 8 46
-14 10 -18 21 -15 40 6 25 10 27 67 28 33 1 63 3 65 6 10 9 13 -3 14 -46z
m-137 -49 c3 -5 -1 -10 -9 -10 -9 0 -16 5 -16 10 0 6 4 10 9 10 6 0 13 -4 16
-10z"/>
<path d="M497 404 c-8 -8 1 -24 14 -24 5 0 9 7 9 15 0 15 -12 20 -23 9z"/>
<path d="M432 389 c2 -6 8 -10 13 -10 5 0 11 4 13 10 2 6 -4 11 -13 11 -9 0
-15 -5 -13 -11z"/>
<path d="M1331 484 c-17 -12 -34 -15 -69 -10 -92 14 -86 16 -94 -39 -21 -141
-21 -177 -3 -211 24 -44 92 -78 144 -71 48 6 91 34 91 58 0 24 -1 24 -50 -2
-29 -16 -51 -20 -77 -16 -36 6 -83 41 -83 62 0 6 37 15 91 21 60 7 96 16 107
28 18 17 27 106 11 106 -5 0 -9 20 -9 45 0 50 -16 58 -59 29z m21 -85 c0 -24
5 -47 12 -51 25 -16 -16 -31 -96 -35 -80 -4 -82 -3 -55 12 32 19 34 28 8 46
-14 10 -18 21 -15 40 6 25 10 27 67 28 33 1 63 3 65 6 10 9 13 -3 14 -46z
m-137 -49 c3 -5 -1 -10 -9 -10 -9 0 -16 5 -16 10 0 6 4 10 9 10 6 0 13 -4 16
-10z"/>
<path d="M1307 404 c-8 -8 1 -24 14 -24 5 0 9 7 9 15 0 15 -12 20 -23 9z"/>
<path d="M1242 389 c2 -6 8 -10 13 -10 5 0 11 4 13 10 2 6 -4 11 -13 11 -9 0
-15 -5 -13 -11z"/>
<path d="M2661 484 c-17 -12 -34 -15 -69 -10 -92 14 -86 16 -94 -39 -21 -141
-21 -177 -3 -211 24 -44 92 -78 144 -71 48 6 91 34 91 58 0 24 -1 24 -50 -2
-29 -16 -51 -20 -77 -16 -36 6 -83 41 -83 62 0 6 37 15 91 21 60 7 96 16 107
28 18 17 27 106 11 106 -5 0 -9 20 -9 45 0 50 -16 58 -59 29z m21 -85 c0 -24
5 -47 12 -51 25 -16 -16 -31 -96 -35 -80 -4 -82 -3 -55 12 32 19 34 28 8 46
-14 10 -18 21 -15 40 6 25 10 27 67 28 33 1 63 3 65 6 10 9 13 -3 14 -46z
m-137 -49 c3 -5 -1 -10 -9 -10 -9 0 -16 5 -16 10 0 6 4 10 9 10 6 0 13 -4 16
-10z"/>
<path d="M2637 404 c-8 -8 1 -24 14 -24 5 0 9 7 9 15 0 15 -12 20 -23 9z"/>
<path d="M2572 389 c2 -6 8 -10 13 -10 5 0 11 4 13 10 2 6 -4 11 -13 11 -9 0
-15 -5 -13 -11z"/>
<path d="M3391 484 c-17 -12 -34 -15 -69 -10 -92 14 -86 16 -94 -39 -21 -141
-21 -177 -3 -211 24 -44 92 -78 144 -71 48 6 91 34 91 58 0 24 -1 24 -50 -2
-29 -16 -51 -20 -77 -16 -36 6 -83 41 -83 62 0 6 37 15 91 21 60 7 96 16 107
28 18 17 27 106 11 106 -5 0 -9 20 -9 45 0 50 -16 58 -59 29z m21 -85 c0 -24
5 -47 12 -51 25 -16 -16 -31 -96 -35 -80 -4 -82 -3 -55 12 32 19 34 28 8 46
-14 10 -18 21 -15 40 6 25 10 27 67 28 33 1 63 3 65 6 10 9 13 -3 14 -46z
m-137 -49 c3 -5 -1 -10 -9 -10 -9 0 -16 5 -16 10 0 6 4 10 9 10 6 0 13 -4 16
-10z"/>
<path d="M3367 404 c-8 -8 1 -24 14 -24 5 0 9 7 9 15 0 15 -12 20 -23 9z"/>
<path d="M3302 389 c2 -6 8 -10 13 -10 5 0 11 4 13 10 2 6 -4 11 -13 11 -9 0
-15 -5 -13 -11z"/>
<path d="M3696 478 c-3 -13 -6 -43 -6 -67 0 -27 -6 -52 -16 -62 -15 -17 -15
-20 0 -43 18 -29 21 -56 6 -56 -6 0 -13 -6 -16 -13 -6 -17 46 -98 58 -91 12 7
10 62 -2 69 -7 4 -8 11 -1 18 5 7 6 30 2 54 -5 23 -4 48 0 55 5 7 9 46 9 86 0
55 -3 72 -14 72 -7 0 -16 -10 -20 -22z"/>
<path d="M4381 484 c-17 -12 -34 -15 -69 -10 -92 14 -86 16 -94 -39 -21 -141
-21 -177 -3 -211 24 -44 92 -78 144 -71 48 6 91 34 91 58 0 24 -1 24 -50 -2
-29 -16 -51 -20 -77 -16 -36 6 -83 41 -83 62 0 6 37 15 91 21 60 7 96 16 107
28 18 17 27 106 11 106 -5 0 -9 20 -9 45 0 50 -16 58 -59 29z m21 -85 c0 -24
5 -47 12 -51 25 -16 -16 -31 -96 -35 -80 -4 -82 -3 -55 12 32 19 34 28 8 46
-14 10 -18 21 -15 40 6 25 10 27 67 28 33 1 63 3 65 6 10 9 13 -3 14 -46z
m-137 -49 c3 -5 -1 -10 -9 -10 -9 0 -16 5 -16 10 0 6 4 10 9 10 6 0 13 -4 16
-10z"/>
<path d="M4357 404 c-8 -8 1 -24 14 -24 5 0 9 7 9 15 0 15 -12 20 -23 9z"/>
<path d="M4292 389 c2 -6 8 -10 13 -10 5 0 11 4 13 10 2 6 -4 11 -13 11 -9 0
-15 -5 -13 -11z"/>
<path d="M2397 483 c-12 -11 -8 -23 8 -23 8 0 15 7 15 15 0 16 -12 20 -23 8z"/>
<path d="M3607 483 c-12 -11 -8 -23 8 -23 8 0 15 7 15 15 0 16 -12 20 -23 8z"/>
<path d="M840 475 c0 -12 24 -55 32 -55 11 0 10 4 -4 35 -9 21 -28 35 -28 20z"/>
<path d="M900 451 c-7 -15 -7 -21 0 -21 12 0 25 28 17 36 -3 3 -10 -4 -17 -15z"/>
<path d="M110 450 c0 -5 7 -10 15 -10 8 0 15 5 15 10 0 6 -7 10 -15 10 -8 0
-15 -4 -15 -10z"/>
<path d="M3110 429 c7 -11 14 -19 16 -16 7 7 -7 37 -17 37 -6 0 -5 -9 1 -21z"/>
<path d="M3146 425 c-3 -8 -1 -15 3 -15 5 0 11 7 15 15 3 8 1 15 -3 15 -5 0
-11 -7 -15 -15z"/>
<path d="M1755 417 c-6 -14 -10 -15 -21 -6 -20 16 -27 6 -11 -15 11 -14 15
-15 31 -3 10 8 16 20 14 28 -5 11 -7 10 -13 -4z"/>
<path d="M914 406 c-8 -22 3 -33 18 -18 9 9 9 15 0 24 -9 9 -13 7 -18 -6z"/>
<path d="M3741 413 c0 -5 4 -17 9 -28 8 -18 9 -17 9 8 1 15 -3 27 -9 27 -5 0
-10 -3 -9 -7z"/>
<path d="M2390 390 c0 -5 7 -10 15 -10 8 0 15 5 15 10 0 6 -7 10 -15 10 -8 0
-15 -4 -15 -10z"/>
<path d="M3070 390 c0 -5 7 -10 15 -10 8 0 15 5 15 10 0 6 -7 10 -15 10 -8 0
-15 -4 -15 -10z"/>
<path d="M3600 390 c0 -5 7 -10 15 -10 8 0 15 5 15 10 0 6 -7 10 -15 10 -8 0
-15 -4 -15 -10z"/>
<path d="M3780 384 c0 -8 5 -12 10 -9 6 3 10 10 10 16 0 5 -4 9 -10 9 -5 0
-10 -7 -10 -16z"/>
<path d="M117 363 c-12 -11 -8 -23 8 -23 8 0 15 7 15 15 0 16 -12 20 -23 8z"/>
<path d="M1722 349 c2 -6 8 -10 13 -10 5 0 11 4 13 10 2 6 -4 11 -13 11 -9 0
-15 -5 -13 -11z"/>
<path d="M917 343 c-12 -11 -8 -23 8 -23 8 0 15 7 15 15 0 16 -12 20 -23 8z"/>
<path d="M2388 344 c-5 -4 -8 -16 -8 -28 0 -14 3 -17 11 -9 6 6 9 19 7 28 -1
9 -6 13 -10 9z"/>
<path d="M3598 344 c-5 -4 -8 -16 -8 -28 0 -14 3 -17 11 -9 6 6 9 19 7 28 -1
9 -6 13 -10 9z"/>
<path d="M3740 335 c0 -8 7 -15 15 -15 8 0 15 7 15 15 0 8 -7 15 -15 15 -8 0
-15 -7 -15 -15z"/>
<path d="M180 319 c7 -11 14 -19 16 -16 7 7 -7 37 -17 37 -6 0 -5 -9 1 -21z"/>
<path d="M2410 333 c0 -5 5 -15 10 -23 8 -12 10 -11 10 8 0 12 -4 22 -10 22
-5 0 -10 -3 -10 -7z"/>
<path d="M3620 333 c0 -5 5 -15 10 -23 8 -12 10 -11 10 8 0 12 -4 22 -10 22
-5 0 -10 -3 -10 -7z"/>
<path d="M146 311 c-4 -7 -5 -15 -2 -18 9 -9 19 4 14 18 -4 11 -6 11 -12 0z"/>
<path d="M3072 288 c6 -18 28 -21 28 -4 0 9 -7 16 -16 16 -9 0 -14 -5 -12 -12z"/>
<path d="M3140 289 c0 -9 7 -22 15 -29 19 -16 19 0 0 26 -12 16 -14 16 -15 3z"/>
<path d="M1730 275 c0 -8 5 -15 10 -15 6 0 10 7 10 15 0 8 -4 15 -10 15 -5 0
-10 -7 -10 -15z"/>
<path d="M3110 265 c0 -15 4 -24 10 -20 6 3 10 12 10 20 0 8 -4 17 -10 20 -6
4 -10 -5 -10 -20z"/>
<path d="M861 262 c-7 -13 -11 -26 -8 -28 8 -8 29 25 25 38 -3 8 -9 4 -17 -10z"/>
<path d="M890 264 c0 -5 7 -19 15 -30 8 -10 15 -14 15 -8 0 5 -7 19 -15 30 -8
10 -15 14 -15 8z"/>
<path d="M3740 246 c0 -9 7 -16 16 -16 17 0 14 22 -4 28 -7 2 -12 -3 -12 -12z"/>
<path d="M1730 231 c-7 -15 -7 -21 0 -21 12 0 25 28 17 36 -3 3 -10 -4 -17
-15z"/>
<path d="M1770 236 c0 -8 5 -18 10 -21 6 -3 10 1 10 9 0 8 -4 18 -10 21 -5 3
-10 -1 -10 -9z"/>
<path d="M3770 206 c0 -8 5 -18 10 -21 6 -3 10 1 10 9 0 8 -4 18 -10 21 -5 3
-10 -1 -10 -9z"/>
<path d="M3740 189 c0 -11 5 -17 10 -14 6 3 10 13 10 21 0 8 -4 14 -10 14 -5
0 -10 -9 -10 -21z"/>
</g>
</svg>
